<svg version="1.1" id="Layer_1" xmlns="http://www.w3.org/2000/svg" xmlns:xlink="http://www.w3.org/1999/xlink" x="0px" y="0px"
	 width="100%" viewBox="0 0 200 200" enable-background="new 0 0 200 200" xml:space="preserve">
<path fill="#000000" opacity="1.000000" stroke="none" 
	d="
M0.999999,142.000000 
	C1.000000,95.026207 1.000000,48.052422 1.000000,1.039315 
	C67.603264,1.039315 134.206558,1.039315 200.904922,1.039315 
	C200.904922,67.565979 200.904922,134.132141 200.904922,200.849152 
	C134.333588,200.849152 67.666840,200.849152 1.000000,200.849152 
	C1.000000,186.588120 1.000000,172.262711 1.334459,157.131592 
	C2.094168,157.334808 2.761397,158.310272 2.906282,159.357971 
	C4.037704,167.539581 5.068764,175.735077 6.214295,184.570175 
	C8.156493,183.377884 9.573707,182.653412 10.830453,181.714218 
	C25.787607,170.536453 40.699936,159.298645 55.666031,148.132889 
	C72.175514,135.815674 88.713448,123.536446 105.266907,111.278358 
	C121.832359,99.011391 138.480133,86.855049 154.997238,74.523529 
	C163.433334,68.225235 171.662216,61.649422 180.340622,55.122528 
	C186.796448,50.610275 192.896408,46.174541 198.996384,41.738808 
	C198.759109,41.313667 198.521835,40.888527 198.284561,40.463383 
	C191.242996,43.857285 184.201447,47.251183 176.850403,50.785213 
	C163.232590,57.207649 149.914627,63.469715 136.624710,69.790741 
	C134.207153,70.940605 133.139633,71.296303 131.792755,67.895973 
	C125.662292,52.418995 118.925034,37.182838 112.453484,21.840046 
	C111.294846,19.093136 109.522301,17.882420 106.415504,17.941330 
	C97.588013,18.108711 88.752449,18.124706 79.926117,17.928038 
	C76.909088,17.860817 75.764351,18.919516 74.831970,21.752069 
	C73.168350,26.806126 70.856163,31.650225 68.753143,36.555519 
	C58.875954,59.594025 48.977642,82.623482 38.564552,106.872498 
	C41.141994,106.485489 42.900051,106.642334 44.221462,105.957123 
	C55.744827,99.981812 67.193100,93.861526 78.656837,87.771446 
	C82.939095,85.496513 85.934700,82.354637 87.369904,77.431000 
	C88.711586,72.828239 91.038544,68.512672 93.314262,63.173538 
	C96.917114,71.882187 100.101273,79.578789 103.295708,87.300240 
	C89.233162,94.850807 75.663773,102.089264 62.140232,109.412376 
	C50.836525,115.533440 39.633396,121.841370 28.297752,127.901985 
	C19.267349,132.730103 10.104213,137.309937 0.999999,142.000000 
M175.018280,170.175430 
	C173.056824,165.578430 171.067337,160.993164 169.138870,156.382385 
	C161.412537,137.909531 153.747406,119.410667 145.855621,101.008911 
	C145.492554,100.162369 142.584000,99.354034 141.827759,99.890556 
	C133.107651,106.077148 124.574516,112.527275 115.545868,119.238747 
	C119.765121,123.269081 123.950165,127.128769 127.981583,131.142746 
	C141.644394,144.746475 155.252823,158.404816 169.157745,172.659134 
	C172.278030,175.764236 175.398315,178.869339 178.518616,181.974426 
	C178.970306,181.690857 179.422012,181.407272 179.873718,181.123688 
	C178.293030,177.728516 176.712341,174.333344 175.018280,170.175430 
z"/>
<path fill="#B7AB99" opacity="1.000000" stroke="none" 
	d="
M0.999999,142.466125 
	C10.104213,137.309937 19.267349,132.730103 28.297752,127.901985 
	C39.633396,121.841370 50.836525,115.533440 62.140232,109.412376 
	C75.663773,102.089264 89.233162,94.850807 103.295708,87.300240 
	C100.101273,79.578789 96.917114,71.882187 93.314262,63.173538 
	C91.038544,68.512672 88.711586,72.828239 87.369904,77.431000 
	C85.934700,82.354637 82.939095,85.496513 78.656837,87.771446 
	C67.193100,93.861526 55.744827,99.981812 44.221462,105.957123 
	C42.900051,106.642334 41.141994,106.485489 38.564552,106.872498 
	C48.977642,82.623482 58.875954,59.594025 68.753143,36.555519 
	C70.856163,31.650225 73.168350,26.806126 74.831970,21.752069 
	C75.764351,18.919516 76.909088,17.860817 79.926117,17.928038 
	C88.752449,18.124706 97.588013,18.108711 106.415504,17.941330 
	C109.522301,17.882420 111.294846,19.093136 112.453484,21.840046 
	C118.925034,37.182838 125.662292,52.418995 131.792755,67.895973 
	C133.139633,71.296303 134.207153,70.940605 136.624710,69.790741 
	C149.914627,63.469715 163.232590,57.207649 177.212479,50.866829 
	C178.584274,52.271889 179.284515,53.735466 179.984756,55.199043 
	C171.662216,61.649422 163.433334,68.225235 154.997238,74.523529 
	C138.480133,86.855049 121.832359,99.011391 105.266907,111.278358 
	C88.713448,123.536446 72.175514,135.815674 55.666031,148.132889 
	C40.699936,159.298645 25.787607,170.536453 10.830453,181.714218 
	C9.573707,182.653412 8.156493,183.377884 6.214295,184.570175 
	C5.068764,175.735077 4.037704,167.539581 2.906282,159.357971 
	C2.761397,158.310272 2.094168,157.334808 1.334459,156.662933 
	C1.000000,152.310745 1.000000,147.621490 0.999999,142.466125 
z"/>
<path fill="#B7AC9A" opacity="1.000000" stroke="none" 
	d="
M168.882034,172.042297 
	C155.252823,158.404816 141.644394,144.746475 127.981583,131.142746 
	C123.950165,127.128769 119.765121,123.269081 115.545868,119.238747 
	C124.574516,112.527275 133.107651,106.077148 141.827759,99.890556 
	C142.584000,99.354034 145.492554,100.162369 145.855621,101.008911 
	C153.747406,119.410667 161.412537,137.909531 169.138870,156.382385 
	C171.067337,160.993164 173.056824,165.578430 174.709320,170.712555 
	C172.560928,171.513901 170.721481,171.778091 168.882034,172.042297 
z"/>
<path fill="#B7B1A6" opacity="1.000000" stroke="none" 
	d="
M180.340622,55.122528 
	C179.284515,53.735466 178.584274,52.271889 177.521957,50.726700 
	C184.201447,47.251183 191.242996,43.857285 198.284561,40.463383 
	C198.521835,40.888527 198.759109,41.313667 198.996384,41.738808 
	C192.896408,46.174541 186.796448,50.610275 180.340622,55.122528 
M182.500610,50.471069 
	C182.500610,50.471069 182.517029,50.513958 182.500610,50.471069 
z"/>
<path fill="#B5ADA0" opacity="1.000000" stroke="none" 
	d="
M169.019897,172.350708 
	C170.721481,171.778091 172.560928,171.513901 174.766022,171.093933 
	C176.712341,174.333344 178.293030,177.728516 179.873718,181.123688 
	C179.422012,181.407272 178.970306,181.690857 178.518616,181.974426 
	C175.398315,178.869339 172.278030,175.764236 169.019897,172.350708 
z"/>
<path fill="#B7AB99" opacity="1.000000" stroke="none" 
	d="
M182.508820,50.492516 
	C182.517029,50.513958 182.500610,50.471069 182.508820,50.492516 
z"/>
</svg>